<svg version="1.1" xmlns="http://www.w3.org/2000/svg" viewBox="0 0 410.03379320614044 388.1255447793752" width="820.0675864122809" height="776.2510895587504">
  <!-- svg-source:excalidraw -->
  
  <defs>
    <style>
      @font-face {
        font-family: "Virgil";
        src: url("https://excalidraw.com/Virgil.woff2");
      }
      @font-face {
        font-family: "Cascadia";
        src: url("https://excalidraw.com/Cascadia.woff2");
      }
    </style>
  </defs>
  <g stroke-linecap="round"><g transform="translate(43.8828125 10.68804477937519) rotate(0 0.830042866139479 162.78325117613187)"><path d="M1.2 -0.69 C1.41 53.51, 1.24 270.37, 0.99 324.8 M0.37 1.57 C0.53 55.99, 0.82 272.5, 0.56 326.25" stroke="#000000" stroke-width="1" fill="none"></path></g></g><g stroke-linecap="round"><g transform="translate(45.01953125 337.1567947793752) rotate(0 177.26198164336387 -0.14027090638876416)"><path d="M-0.49 -0.81 C58.49 -0.68, 295.93 0.28, 355.01 0.3 M1.45 1.38 C60.27 1.17, 295.99 -1.49, 354.63 -1.66" stroke="#000000" stroke-width="1" fill="none"></path></g></g><g transform="translate(46.88671875 325.1567947793752) rotate(0 169.14453125 -158.83203125)" stroke="none" fill="#364fc7"><path d="M 0.9958500974143898 -11.21969527751258 Q 0.9958500974143898 -11.21969527751258 1.9689078510499292 -11.236465966810364 2.9419656046854685 -11.25323665610815 1.9689078510499292 -11.236465966810364 0.9958500974143898 -11.21969527751258 1.9689078510499292 -11.236465966810364 2.9419656046854685 -11.25323665610815 4.370780097202507 -11.287474527212408 5.799594589719545 -11.321712398316667 8.131048989638531 -11.46873599877799 10.462503389557517 -11.615759599239315 12.491858286500683 -11.917251072661136 14.521213183443848 -12.218742546082957 16.56710060954822 -12.586422858129513 18.612988035652588 -12.954103170176069 20.760880084045574 -13.308887359633204 22.908772132438557 -13.663671549090338 24.917325222582836 -14.00427058875929 26.925878312727114 -14.344869628428242 28.44475135262343 -14.549890772363337 29.963624392519748 -14.754911916298434 31.920928494507855 -15.061662948453804 33.87823259649596 -15.368413980609175 36.72345727233479 -15.811513395697403 39.56868194817362 -16.254612810785634 41.942161314746116 -16.604790031611437 44.31564068131861 -16.95496725243724 46.64281999576509 -17.418641726712806 48.96999931021156 -17.882316200988374 51.46639510854069 -18.412429235535253 53.96279090686981 -18.942542270082132 56.6976129471638 -19.429317362534256 59.43243498745778 -19.916092454986376 62.00933119843167 -20.29195517383222 64.58622740940555 -20.66781789267807 66.57169504164412 -20.91914978833462 68.5571626738827 -21.17048168399117 71.35916440034268 -21.754361386938115 74.16116612680267 -22.338241089885056 76.93680759860587 -23.001576013065897 79.71244907040906 -23.664910936246738 82.43069851819472 -24.224867227234924 85.14894796598037 -24.784823518223106 87.80216371574181 -25.353143497007988 90.45537946550324 -25.92146347579287 93.36365641017014 -26.485763822277626 96.27193335483705 -27.05006416876238 98.43403289241508 -27.478826058225266 100.59613242999312 -27.907587947688153 102.50317235066413 -28.276139741914918 104.41021227133513 -28.644691536141686 106.20653870868372 -28.981748920201476 108.00286514603232 -29.31880630426127 110.05264394042032 -29.762415949797024 112.10242273480834 -30.20602559533278 114.90979430601917 -31.012151435819057 117.71716587722999 -31.81827727630533 120.17180138232669 -32.65303407310476 122.6264368874234 -33.4877908699042 124.9637028780209 -34.267218973325726 127.3009688686184 -35.04664707674725 129.7345130211742 -35.84374134754408 132.16805717373 -36.64083561834092 134.7582965267618 -37.40041674071918 137.34853587979362 -38.15999786309743 139.80586673689118 -38.87622045003514 142.26319759398876 -39.59244303697285 144.31512015842378 -40.19204499226639 146.36704272285883 -40.791646947559926 148.39271659970194 -41.37732100198549 150.41839047654503 -41.96299505641107 152.3173830198508 -42.43779270857098 154.21637556315662 -42.912590360730896 155.96525541621446 -43.16781819933482 157.7141352692723 -43.42304603793873 160.22376015519905 -44.071069415692776 162.7333850411258 -44.719092793446826 165.25922152580148 -45.54244619958165 167.78505801047714 -46.36579960571646 169.55442781475705 -46.89409264084479 171.32379761903695 -47.42238567597311 172.9558979569152 -47.98929747847541 174.58799829479346 -48.5562092809777 176.13080803442327 -49.12797986775716 177.67361777405307 -49.69975045453663 179.3856942899664 -50.2382954034136 181.09777080587975 -50.77684035229058 182.50593315387354 -51.34256754496046 183.91409550186734 -51.90829473763035 185.43503230944563 -52.492331825443244 186.95596911702393 -53.07636891325613 188.66432470982738 -53.6199144365034 190.37268030263084 -54.16345995975067 191.77194161431953 -54.755464612755105 193.17120292600822 -55.34746926575954 194.59367316232508 -56.04195325461586 196.01614339864193 -56.736437243472174 197.57856817562595 -57.405069544000675 199.14099295260996 -58.073701844529175 200.81860623778508 -58.71572098558711 202.4962195229602 -59.357740126645055 204.19604921925492 -60.09109266169114 205.89587891554967 -60.82444519673723 208.2590071500877 -61.93099505116075 210.62213538462572 -63.03754490558426 212.78647553358584 -64.11945329488832 214.95081568254597 -65.20136168419236 216.89579799957295 -66.21814154814001 218.84078031659993 -67.23492141208766 220.42230014366424 -68.3106719830981 222.00381997072856 -69.38642255410856 223.28929079600152 -70.48916421132634 224.5747616212745 -71.5919058685441 226.14589359396922 -72.94740678774893 227.71702556666395 -74.30290770695376 229.60455254333553 -75.74984627510315 231.4920795200071 -77.19678484325253 233.39367036455985 -78.6650739136503 235.29526120911262 -80.13336298404806 236.9643272815017 -81.35244308546261 238.63339335389077 -82.57152318687716 240.39404444674358 -83.71046534358409 242.15469553959642 -84.84940750029102 243.92739063371258 -85.95860544928698 245.70008572782874 -87.06780339828292 247.56571783526408 -88.20481162913917 249.43134994269943 -89.34181985999543 251.46223742672947 -90.73329080011536 253.49312491075955 -92.12476174023529 255.74864106415185 -93.69774587553891 258.00415721754416 -95.27073001084253 259.84030435699185 -96.86326813837901 261.6764514964395 -98.4558062659155 263.2159687915863 -100.26255793895305 264.7554860867331 -102.06930961199059 265.9284807394382 -103.69579652919316 267.10147539214336 -105.32228344639573 268.6102932065084 -107.10534005944757 270.11911102087345 -108.88839667249941 271.83604662789656 -110.6506095402296 273.5529822349197 -112.41282240795978 275.24052496928044 -114.20015106749469 276.9280677036412 -115.98747972702958 277.91626250916875 -117.15856115634526 278.9044573146963 -118.32964258566093 279.7953681236909 -119.76907785036622 280.68627893268547 -121.20851311507148 281.29056433998903 -123.35400618706416 281.89484974729265 -125.49949925905682 282.6962190906238 -127.35642130795061 283.4975884339549 -129.2133433568444 284.5801482157142 -131.93555067429634 285.6627079974735 -134.65775799174827 286.59177939124163 -137.10222154491169 287.5208507850097 -139.54668509807513 288.1209044029166 -140.9703319224203 288.72095802082345 -142.3939787467655 289.565346377114 -144.06973937483252 290.4097347334046 -145.74550000289958 291.41042798407443 -147.91531019988525 292.41112123474426 -150.0851203968709 293.3762513677183 -152.04884700932365 294.3413815006923 -154.0125736217764 295.29033872204116 -156.02057238317798 296.23929594339006 -158.02857114457953 297.3002902249702 -160.2620474135201 298.3612845065503 -162.49552368246066 299.5523093468746 -164.6180995513722 300.74333418719885 -166.7406754202838 301.71831819558406 -168.343386316759 302.6933022039692 -169.94609721323417 303.86192476378653 -171.61507687312238 305.03054732360386 -173.28405653301058 306.22684668925365 -174.8095343516249 307.4231460549035 -176.3350121702392 308.50691047649434 -177.62352357756976 309.5906748980851 -178.91203498490032 310.41645346511586 -180.28106935252424 311.24223203214666 -181.65010372014814 312.14675574181683 -183.4236737660695 313.05127945148706 -185.1972438119909 313.9309893316954 -187.1548938141837 314.8106992119038 -189.11254381637656 315.52099092287574 -190.85249310637903 316.2312826338476 -192.59244239638153 316.9184538019797 -194.68701960130772 317.60562497011176 -196.78159680623392 318.3307013056143 -198.82882993132404 319.0557776411168 -200.87606305641413 319.8086479218583 -203.34937179605362 320.5615182025998 -205.8226805356931 321.3521888528272 -208.41728438200784 322.14285950305464 -211.0118882283226 322.85018383311 -213.1808780612123 323.5575081631654 -215.34986789410198 324.05349965037175 -217.4203093115061 324.5494911375781 -219.4907507289102 324.9966708040758 -221.84209729723477 325.44385047057347 -224.19344386555935 325.7200925586368 -226.82476609542363 325.99633464670006 -229.45608832528788 326.2690567379508 -232.23689470066955 326.5417788292015 -235.01770107605122 326.8141451223887 -237.66102508767247 327.0865114155759 -240.30434909929372 327.4163721011123 -242.65748553977835 327.74623278664865 -245.010621980263 328.19806204976106 -247.2821867901257 328.6498913128735 -249.55375159998843 329.05729956451876 -251.69965816649795 329.46470781616404 -253.8455647330075 329.73888590927857 -255.9152105574862 330.01306400239315 -257.9848563819649 330.1965626393232 -260.28855977745525 330.38006127625323 -262.59226317294554 330.4214509404927 -264.62658791649153 330.4628406047322 -266.6609126600375 330.49904315573474 -268.39088711270756 330.5352457067373 -270.1208615653776 330.65012178445795 -272.17666121166525 330.7649978621785 -274.2324608579529 331.0161463559495 -276.4959510686263 331.2672948497205 -278.7594412792997 331.332792684113 -280.7223616925212 331.39829051850546 -282.6852821057426 331.3838220007022 -284.4947798498075 331.36935348289893 -286.30427759387237 331.2893877827398 -288.01463059744924 331.2094220825807 -289.7249836010261 331.22256801521746 -291.540273312947 331.23571394785426 -293.35556302486793 331.49628030893086 -295.2576479380105 331.75684667000746 -297.1597328511531 332.336184964097 -298.76094073174113 332.9155232581865 -300.3621486123292 333.64973755035703 -301.971144952666 334.3839518425275 -303.58014129300284 334.73496058392357 -305.2974248562814 335.0859693253197 -307.01470841956 335.4769287873248 -308.51315119915057 335.86788824933 -310.0115939787412 336.7529306486199 -310.99905941218145 337.6379730479098 -311.9865248456217 338.93492821278517 -311.6459931054187 340.2318833776606 -311.30546136521576 340.71871853151066 -310.0560430610604 341.2055536853607 -308.806624756905 340.4809075679465 -307.67837719085435 339.75626145053224 -306.55012962480373 338.417553694788 -306.47321336844027 337.0788459390438 -306.39629711207675 336.229746704546 -307.43412419582336 335.38064747004825 -308.47195127956996 335.7211792102512 -309.7689064444454 336.0617109504542 -311.0658616093208 337.31112925460957 -311.55269676317084 338.56054755876494 -312.0395319170209 339.68879512481556 -311.31488579960666 340.81704269086623 -310.5902396821924 340.89395894722975 -309.2515319264482 340.9708752035932 -307.91282417070397 339.9330481198466 -307.0637249362062 338.8952210361 -306.2146257017084 339.48347482105066 -306.12430762218753 340.07172860600133 -306.03398954266663 339.9490481339627 -304.7460926656862 339.82636766192405 -303.4581957887058 339.25030175912855 -301.81267071848447 338.6742358563331 -300.1671456482631 338.10072010211803 -298.5291835231143 337.52720434790297 -296.89122139796547 337.1143422646094 -295.0888877886837 336.70148018131573 -293.2865541794019 336.57656226154666 -291.50511521332623 336.4516443417775 -289.7236762472506 336.3646655568696 -288.0000869043076 336.2776867719617 -286.2764975613646 336.2396243816769 -284.4275739323542 336.201561991392 -282.57865030334386 336.17489972294567 -280.46572740659667 336.14823745449934 -278.35280450984953 336.030745536915 -276.2284878654249 335.91325361933065 -274.1041712210003 335.91353460719745 -272.10811449577363 335.9138155950643 -270.11205777054704 335.93849032869855 -267.37529854608306 335.96316506233273 -264.6385393216191 335.77965182263733 -262.2448702192311 335.5961385829419 -259.8512011168431 335.44273629887584 -257.55416137996605 335.28933401480975 -255.25712164308905 334.8914898239607 -252.8369922218692 334.49364563311156 -250.41686280064934 334.01606283199555 -248.28619799844537 333.5384800308796 -246.1555331962414 333.21655192667686 -244.04977508938737 332.89462382247416 -241.94401698253333 332.5023980901581 -239.55119286629287 332.1101723578421 -237.15836875005243 331.81862212200053 -234.3828767562175 331.5270718861589 -231.6073847623826 331.27437375185286 -228.89089882277807 331.02167561754675 -226.17441288317352 330.6959134494113 -223.38455174777744 330.37015128127587 -220.59469061238138 329.895326381662 -218.34846235038276 329.4205014820481 -216.10223408838414 328.81221095213505 -213.891321238842 328.20392042222204 -211.68040838929988 327.3843063107637 -209.38741844052734 326.5646921993054 -207.0944284917548 325.7811892103043 -204.38315520662437 324.9976862213032 -201.67188192149393 324.52727277141935 -199.85525511735077 324.05685932153546 -198.0386283132076 323.5170707888367 -196.45986948522187 322.9772822561379 -194.88111065723618 322.47002884850417 -193.35630914601325 321.9627754408705 -191.83150763479028 321.3637165389163 -190.18208546399367 320.76465763696217 -188.53266329319706 320.0287716822773 -186.76620492505685 319.2928857275924 -184.99974655691665 318.2515522598074 -182.88762595954222 317.2102187920224 -180.77550536216782 316.17801072883174 -178.9442029582458 315.1458026656411 -177.11290055432377 313.7065372770962 -175.28059224850347 312.26727188855125 -173.4482839426832 311.0352248614814 -171.90335393828724 309.80317783441154 -170.3584239338913 308.675093639529 -168.78740682944982 307.5470094446464 -167.21638972500838 306.4560767140396 -165.47320023692217 305.36514398343286 -163.73001074883595 304.31394457734996 -161.8832904564244 303.2627451712671 -160.0365701640128 302.2498285069656 -157.8890657883852 301.2369118426641 -155.7415614127576 300.2286646463553 -153.65237752754894 299.2204174500465 -151.56319364234025 298.2509405069185 -149.6862569877248 297.28146356379045 -147.80932033310935 296.2019249564521 -145.56827472096828 295.1223863491138 -143.3272291088272 293.97451327307505 -140.829720926616 292.8266401970363 -138.33221274440484 292.13300152197894 -136.5362696954868 291.43936284692165 -134.74032664656875 290.51753991979774 -132.33492165874952 289.59571699267383 -129.92951667093027 288.9145601296218 -128.19175192393493 288.2334032665698 -126.45398717693958 287.3313151308943 -124.24494895877984 286.42922699521887 -122.0359107406201 285.85238783795967 -120.12339513749085 285.27554868070047 -118.2108795343616 284.2473710301023 -116.65482606243572 283.21919337950413 -115.09877259050982 282.1213503335458 -113.72554807173026 281.02350728758745 -112.35232355295071 280.00523037599623 -111.18006086238242 278.9869534644051 -110.00779817181412 277.4548987245537 -108.34652384209096 275.9228439847023 -106.68524951236782 274.4274589629882 -105.08894122857058 272.9320739412741 -103.49263294477332 271.70044575343877 -101.88023125937096 270.46881756560344 -100.26782957396861 269.1929785708523 -98.6902484551967 267.91713957610114 -97.11266733642478 266.45739853267577 -95.56227838703852 264.9976574892504 -94.01188943765226 263.1344426466151 -92.45559788480202 261.27122780397985 -90.89930633195178 258.93336665249075 -89.21443966131227 256.59550550100164 -87.52957299067276 254.37395364072907 -85.98168127857525 252.1524017804565 -84.43378956647773 250.38666138365346 -83.35184279167055 248.62092098685045 -82.26989601686338 246.90127014381625 -81.19838035124633 245.18161930078202 -80.12686468562926 243.46608700401978 -79.0275416426885 241.75055470725755 -77.92821859974774 240.21101482753122 -76.82568758564628 238.67147494780488 -75.7231565715448 236.8072699725737 -74.2683822442493 234.9430649973425 -72.81360791695379 233.24313200612065 -71.5304172065542 231.5431990148988 -70.24722649615464 229.88921680064095 -68.82611754939376 228.23523458638314 -67.40500860263289 226.6667225128896 -66.1268788111174 225.09821043939607 -64.8487490196019 223.33654729361155 -63.70259262495881 221.574884147827 -62.55643623031572 219.4859404695673 -61.5104881531139 217.3969967913076 -60.464540075912076 215.03658299934386 -59.341535270607466 212.6761692073801 -58.218530465302855 210.25556505733525 -57.15824153604818 207.8349609072904 -56.0979526067935 206.08056584138268 -55.37086868243989 204.32617077547496 -54.64378475808628 202.73536110096478 -54.01922432159891 201.14455142645463 -53.39466388511154 199.69165086973703 -52.777029654707775 198.23875031301944 -52.159395424304 196.68431627218274 -51.40625655202744 195.12988223134602 -50.65311767975088 193.5308782918516 -49.992402165046414 191.9318743523572 -49.33168665034194 190.36352224376924 -48.82386316300686 188.79517013518125 -48.316039675671774 187.29457267303667 -47.73972155914856 185.7939752108921 -47.16340344262535 184.22283922998332 -46.54872180874776 182.65170324907456 -45.93404017487016 181.06419630643958 -45.419907384755895 179.4766893638046 -44.90577459464163 177.90646180508406 -44.311955063449446 176.33623424636355 -43.718135532257264 174.60955912542772 -43.07515314505064 172.88288400449187 -42.43217075784402 171.25756512468612 -41.898090243845886 169.63224624488038 -41.36400972984776 168.07325379705415 -40.77516207194333 166.51426134922792 -40.1863144140389 164.95409821894296 -39.67163311741258 163.393935088658 -39.15695182078627 160.77686353899793 -38.5131653767171 158.1597919893379 -37.86937893264792 155.95477855184885 -37.467251024496115 153.7497651143598 -37.06512311634431 151.74261989173448 -36.567755678048655 149.73547466910915 -36.07038823975301 147.6975969933841 -35.507674252260976 145.65971931765907 -34.944960264768945 143.52641601983962 -34.356178441395116 141.39311272202016 -33.76739661802128 138.9147745916586 -33.05403944005704 136.43643646129703 -32.340682262092805 133.9533166978509 -31.607584411439966 131.47019693440478 -30.874486560787126 129.0361795948119 -30.050452116100022 126.60216225521901 -29.226417671412918 124.21211020938763 -28.4684621391879 121.82205816355625 -27.710506606962884 119.03757137579933 -26.97535546997098 116.25308458804241 -26.24020433297908 114.29919727592267 -25.732118070151095 112.3453099638029 -25.22403180732311 110.61815562658072 -24.878404835951102 108.89100128935851 -24.532777864579092 107.11819616346025 -24.207832941742836 105.345391037562 -23.882888018906584 103.51901176474492 -23.517669316261536 101.69263249192784 -23.152450613616487 99.49109234585613 -22.568914954923734 97.28955219978442 -21.985379296230978 94.4168535618881 -21.34464726907763 91.54415492399177 -20.703915241924282 88.76500606028165 -20.11323686861033 85.98585719657153 -19.52255849529638 83.49647462454837 -19.037303835390844 81.00709205252522 -18.55204917548531 78.16722509036369 -17.87428439901951 75.32735812820215 -17.19651962255371 73.47489739458382 -16.78083755854781 71.6224366609655 -16.36515549454191 70.05426145439432 -16.07030924001775 68.48608624782315 -15.775462985493586 65.85272357297296 -15.431561480153189 63.21936089812277 -15.087659974812793 60.42175834381746 -14.647498079615204 57.62415578951214 -14.207336184417617 54.99549079868089 -13.640158085392969 52.36682580784964 -13.072979986368322 49.97910259653575 -12.603668129354947 47.59137938522187 -12.13435627234157 45.163213608980264 -11.71272815841775 42.73504783273866 -11.291100044493929 40.18520396191463 -10.944301944336834 37.635360091090604 -10.59750384417974 35.84561478288225 -10.278587480335535 34.0558694746739 -9.959671116491332 31.46441275653115 -9.51512073929987 28.872956038388402 -9.070570362108409 26.335815361795348 -8.623613296124688 23.798674685202297 -8.176656230140967 21.714074001743647 -7.843676458415304 19.629473318284994 -7.510696686689641 17.510349730595316 -7.146095380151866 15.391226142905637 -6.78149407361409 13.20421622123683 -6.487295132872727 11.017206299568025 -6.193096192131363 8.467726850140924 -6.046984183392734 5.918247400713821 -5.900872174654104 4.430106502699645 -5.882411509272977 2.9419656046854685 -5.86395084389185 1.9689078510499292 -5.880721533189635 0.9958500974143898 -5.89749222248742 0.4979250487071949 -5.89749222248742 0 -5.89749222248742 -0.7820781163624336 -6.151604806486306 -1.5641562327248673 -6.405717390485191 -2.0475070904943466 -7.070992772363336 -2.530857948263826 -7.736268154241481 -2.530857948263826 -8.55859375 -2.530857948263826 -9.38091934575852 -2.0475070904943466 -10.046194727636664 -1.5641562327248677 -10.711470109514808 -0.28415306765523896 -10.965582693513694 Z"></path></g><g stroke-linecap="round"><g transform="translate(47.7734375 175.8052322793752) rotate(0 174.40610404126346 -0.4605158986776985)"><path d="M0.4 -0.26 C58.57 -0.45, 290.53 -0.8, 348.41 -0.59" stroke="#e67700" stroke-width="2.5" fill="none" stroke-dasharray="1.5 8"></path></g></g><g transform="translate(109.31640625 143.2505447793752) rotate(0 58 12.5)"><text x="0" y="18" font-family="Virgil, Segoe UI Emoji" font-size="20px" fill="#e67700" text-anchor="start" style="white-space: pre;" direction="ltr">Energy Limit</text></g><g transform="translate(-9.5 41.97710727937519) rotate(270 32 12.5)"><text x="0" y="18" font-family="Virgil, Segoe UI Emoji" font-size="20px" fill="#000000" text-anchor="start" style="white-space: pre;" direction="ltr">Effort</text></g><g transform="translate(349.14453125 353.1255447793752) rotate(0 22 12.5)"><text x="0" y="18" font-family="Virgil, Segoe UI Emoji" font-size="20px" fill="#000000" text-anchor="start" style="white-space: pre;" direction="ltr">Time</text></g></svg>