<svg xmlns="http://www.w3.org/2000/svg" width="231.3" height="321.3" overflow="visible" fill="#0C4768"><path  d="M217.6 2.3c-.5-.8-1.4-1.6-2.2-1.6-2.6-.3-5.1-.2-7.7-.2-5.4.1-10.7.3-16.1.2-8.3 0-16.6-.4-25-.6-1.8 0-3.7.4-5.7.4L149.2.2l-3 .1c-5.1.1-10.3.3-15.5.2-3.9 0-7.7-.6-11.5-.5-9.2.2-18.3.7-27.4 1-7 .2-14 .3-21.1.3-6.4 0-12.7-.4-19-.7l-1.5.2c-2.4 0-3.6 2-5 3.4-8.4 7.9-17 15.6-25 23.7-6.7 6.5-13 13.5-19.3 20.3-1.7 1.8-.8 5 1.5 6 1.7.9 3.5 1.8 4.9 3L20 69.6c4 3.9 7.8 8 12.3 11.5 4.2 3.2 7.7 7.4 11.4 11.2 1.4 1.4 2.8 2.7 3.8 4.2 2 2.9 1.9 2.7 5.3 2 2.8-.5 5.7-.5 8.5-.6 6.1-.3 12.2-.6 18.3-.7 6 0 12 .5 18 .9l18.3 1.2c1.6.2 2.2.8 2 2.5-.2 3.4-.6 7-.5 10.4.1 4.9.8 9.7 1 14.6.3 4 0 8 .2 12.1l1.1 24.7v7.3c-.1 10.9-.1 21.7-.4 32.6-.3 11.5-1 23-1.3 34.4-.2 9.3 0 18.6 0 27.9-.1 5.5-.5 11-.7 16.5 0 1.7-.6 2.3-2.5 2.2-8-.6-15.7.2-22.4 4.9-5.9 4-10.8 8.7-9.2 16.9v.5c-.1 2.7 1.2 4.7 3.4 6a56.6 56.6 0 0023.9 6.8l20.8 1.7c2.4.2 4.9.2 7.3 0 4.2-.7 8.4-1.7 12.7-2.3 3.2-.4 6.3-.8 9.2-2.3 3.8-2 8-3.4 11.6-5.8a19 19 0 008.4-11.7c.6-3-2.2-8.4-4.6-9.1-3.4-1-6.9-2.2-10.3-2.5-5.7-.4-11.5-.1-17.2-.1-2.2 0-2.8-.6-3-2.8l-.7-15.8-.6-10.8c-.4-5.8-1-11.5-1.2-17.2-.2-6.2-.5-12.3-.3-18.5.1-5 1-9.8 1.4-14.7.5-7 1.1-14 1.2-21 .1-7.2-.3-14.4-.7-21.6-.5-7.8-1.3-15.6-1.6-23.5-.2-4 .3-8 .4-12.1l.8-26.8c0-2.7.6-3.3 3.3-3.3h4.5c6.5-.1 13 0 19.5-.3l17.1-.9c6-.2 11.8-.2 17.6-.2 2.3 0 4.7-.2 6.6 1.5 1 1 2.1.4 2.6-.7.3-.8.4-1.9.3-2.8-.2-2-1-4.2-1-6.3.2-13.7.5-27.5.6-41.3v-8.8l.7-33c0-.7.5-1.5.8-2.2.3-.7 1-1.7.8-2zM143.3 297c1.6-.2 2-1.2 2.1-2.6v-3.2c2.2 2 4 .7 5.8.5 4.8-.5 9.6-.4 14.4-.3 2.3.1 4.6.7 6.9 1.2 5.6 1.3 6 5.8 3.4 9.7a21 21 0 01-11 8.8c-3.6 1.2-7 2.7-10.6 3.6-3.6 1-7.4 1.3-11 1.8-3 .4-5.8.8-8.6.8-2.7 0-5.5-.4-8.2-.6l-.7-.1-15.3-.8c-7-.3-13.8-2-20.1-5.2-3.4-1.8-4.6-5.6-3-9.7 2-5.9 6.6-9 12-11.2 4.5-1.7 9.2-2 14-1.4 4 .5 4.4-.4 4 4.7l-.2 1.9c0 1.1.5 2 1.9 2.1 1.3.2 2-.5 2.1-1.7v-1.5l.6-4.1c.1-.4.4-.7.4-1 .1-2.6.7-5.3.2-7.7-1.2-5.2-.7-10.3-.8-15.5-.1-12.3-.5-24.7.2-37 1-15.3 1-30.6 1.3-45.9.1-11-.2-22.1-.4-33.2 0-3-.3-6-.4-9l-.7-17.5c-.3-6.7-.8-13.3-1.3-20a7 7 0 00-.2-1.2c-.4-1.5.2-2.2 1.7-2.2h7.4l9.2-.3c1.5 0 2.2.3 2.2 2l-.1 16.4c-.2 6-1 12-1 18-.1 5.3.4 10.5.6 15.8l.4 6.1c.5 6.9 1.2 13.7 1.4 20.5.1 4.9-.4 9.8-.6 14.6l-.7 11.2c-.5 7.5-1.2 15-1.5 22.4-.2 4.5.3 9 .5 13.6 0 2 .2 3.8.3 5.6l1.4 24.7c.3 6.4.4 12.7.4 19 0 1.8-.4 3.5-.5 5.3-.1 1.7.8 2.7 2.1 2.6zM213 5.3c-.3 4.3-.7 8.6-.8 12.9v21.5a2794.5 2794.5 0 01-.3 27.5l-.1 8.5c-.2 3.2-.6 6.4-.6 9.6v9.4c0 1.4-.7 1.5-2 1.4-6.5-.3-13-.9-19.5-.9-6.6 0-13.1.6-19.7.8-6.4.2-12.7.2-19.1.2-11.1 0-22.3.2-33.4 0-5.8-.2-11.5-1.5-17.3-1.6-13.4-.4-26.7-.3-40-.4-3.2 0-6.3-.2-9.4-.5-.7 0-1.4-.8-2-1.3-4.3-4.4-8.4-9-12.9-13.3-8.1-7.7-16.4-15.2-24.7-22.8l-5-4.8c-1-.9-1.1-1.7 0-2.8 4.6-5.2 9.1-10.5 14-15.5 5.6-5.9 11.5-11.5 17.4-17.1 3.3-3.2 6.9-6.3 10.5-9.3a6 6 0 013.3-1.3l22.3-.4 35.7-1.5c3.4-.1 6.7-.5 10.1-.5 4.2 0 8.5.5 12.7.6h7.3l9.5-.1h23.4l33.1.5c2 0 4-.2 6-.4 1.2 0 1.6.5 1.5 1.6z"/><path d="M46.8 286.4l-1.8 7.4c-.6 1.8-1.1 3.7-2 5.4-.5.9-1.7 1.9-2.6 2-.8 0-1.8-1.1-2.6-1.8-.4-.3-.6-.8-1-1.3l-.9.7c-1.9 2.1-3.6 1.9-4.7-.7l-2-5.8-.8-1.3h-.7l-2.3 6.4c-.7 2.1-1.2 3.4-3.4 2.8.4-1.8.7-3.6 1.3-5.4 1.1-3.1 2.4-6.3 3.7-9.3.3-.7 1.2-1.6 1.8-1.6.6 0 1.4 1 1.7 1.6l2.2 7.3 1.1 2.2 1.4-2.4c.4-1.2 1.3-2 2.3-1.5.8.3 1.5 1.3 2 2.2.3.7.3 1.6.4 2.4h.7l1.8-4.8c1.3-4.3 2.4-8.7 3.8-13 .2-.7 1.4-1.7 2-1.6.8.1 1.8 1 2 1.9.4 1.2.3 2.6.3 3.9 0 5 .6 9.8 2.3 14.5l.6 1.4 1.4-3.3c.4-1.1.7-2.3 1.3-3.3.4-.7 1.4-1.6 1.9-1.4.8.2 1.6 1 2 1.8.5 1 .6 2 .8 3l.6 2c.6-1 1-1.5 1.4-1.9.8-.9 1.7-2.2 2.7-2.4.8 0 1.7 1.6 2.5 2.4.2.2.3.5 1 1l1.3-4.6c.4-1.3 1.6-3.4 3.2-3.5 1.4 0 2 1.3 2 2.7-.1.8 0 1.5.8 1.9.7.3 1.2.5 1.8 1 .8.6 1.7 1.1 2.5 1.8.5.4 1.5 1.3 1.4 2a9.5 9.5 0 01-1.4 3.4c-.3.5-1.3.9-1.6.7-2-1.2-5-1.2-6-3.8l-.8-1-1 3c-.3.7-.4 1.6-.8 2.3-.9 1.5-2.7 1.5-3.6 0-.6-1.1-1-2.3-1.6-3.9-.4.9-.6 1.4-1 1.8-.6.8-1.4 2-2.1 2-1 0-2.1-1-2.9-1.7-.5-.6-.6-1.6-1-2.4 0-.3-.4-.5-.9-1.1l-.8 2.6c-.4 1.3-.5 2.7-1.2 3.7-1.2 1.9-2.6 1.6-3.6-.5a45 45 0 01-4-14.1l-.3-2-.6.2zM199.8 288.5c.6-.8 1-1.8 1.8-2.5.9-.8 2-2 3-2 1.5 0 1.7 1.5 1.8 2.8 0 .5.3 1 .5 1.5l.6.2 2.2-4c.3-.6.5-1.2.9-1.7 1.3-1.4 2.7-1.2 3.5.6l.6 1.3c1.2-1.3 1.4-3.8 3.5-2.8 1 .4 1.3 2 2 3.3l.7-1c2.2-4 4.3-8.1 6.7-12 .5-1 1.9-2.1 2.6-2 1.6.3 1 2 1 3.2-.4 4.1-1 8.2-1.3 12.3-.2 3 .2 6 .2 9 0 .5.2 1.1 0 1.6 0 .5-.5 1.2-.8 1.2-.5 0-1.3-.4-1.5-.8-.4-1.3-.8-2.6-.8-3.9l.5-12v-2l-.6-.1c-.4.6-.8 1.3-1 2-1.5 3.5-2.8 7-4.4 10.5-1 2.4-2.1 2.6-4.3 1-.3-.2-1-.4-1.3-.2-2 .8-3 .2-3.5-1.8-.1-.5-.3-1-.9-1.6l-.9 1.5-.5 1.4c-.7 1.4-1.5 3-3.3 3-1.8 0-2.5-1.6-3-3.2 0-.3-.3-.6-.7-1.1l-1.4 1.8-1 1.8c-.7 1-1.5 2-2.6 1.3-.9-.5-1.9-1.6-2-2.6-.5-2.4-.5-5-.8-7.4 0-.9-.3-1.7-.5-2.6h-.6l-.8 1.6c-1.4 3.8-2.7 7.5-4.3 11.3-.2.6-1.2 1-2 1.5-.2-1-.7-2-.6-3 .2-1.3 1.1-2.4 1.6-3.6l3-9.2c.6-1.6.9-3.3 1.6-4.9.2-.7 1.1-1.5 1.8-1.5.6-.1 1.8.6 2 1.2l2.2 10.2.5 2.3.6.1zM54.4 40c2.3 0 4 2.4 4 4.7l.4 6.5v2c-.8 2.7-1.9 3-5.2 2.7-3.8-.2-7.7 0-11.5 0-1.4 0-3.3 0-4 .8-.7.7 0 2.6 0 4 0 2.1 1.3 10.2.1 10.8-1.1.6-3.3-.5-4-1.8-.8-1.2-1.8-2.2-2.7-3.3L30.4 65c-.8-.9-1.4-2-2.3-2.7-3-2.6-5.8-5.3-9-7.7-1.3-1-3-1.8-4.6-2.6-2.9-1.4-3.1-3.1-.8-5.2 1.8-1.7 3.3-3.7 5-5.3l14.7-13.7c.7-.6 1.4-1.3 2-2.1 1.4-1.7 3.3-2.5 3.3-.7 0 2 .5 10.3-.3 13.5-.3 1 .4 1.7 1.6 1.7l14.4-.2zM82.1 20.3v-1.2c0-.4-.1-.8-.4-1.2a63.9 63.9 0 01-3.4-6.8l.3-.6.6-.3c.2 0 .5.2.7.5l1.7 3 1.4 2.5a43 43 0 013.7-5.7c.3-.3.4-.4.6-.4h.3c.4.3.6.5.6.7l-.2.7-1 1.5a28 28 0 00-3.2 5.8v6.4c0 .3 0 .5-.2.7l-.7.2a.6.6 0 01-.6-.5l-.2-1.2v-4.1zM93.6 15c1.2 0 2.1.5 2.9 1.6s1 2.4 1 4c0 1.5-.3 2.8-1 4-.8 1-1.8 1.5-3 1.5-1.3 0-2.4-.5-3.1-1.6a6.4 6.4 0 01-1.2-3.7c0-1.8.4-3.2 1-4.2a3.8 3.8 0 013.4-1.7zm-.3 2c-.7 0-1.2.3-1.6 1-.5.7-.7 1.4-.7 2.2 0 1.2.2 2.1.7 2.8.5.6 1 1 1.7 1 1 0 1.7-.5 2-1.5.2-.4.2-1 .2-1.7 0-2.6-.7-3.9-2.3-3.9zM99.4 15.2l.6-.3.5.1.3.2v.4l-.1 3.3.3 3.5c.3 1.3.5 1.9.8 1.9.5 0 1-.2 1.7-.7s1.1-1 1.4-1.5l-.3-6c0-.3.1-.6.3-.8.3-.3.5-.4.8-.4.5 0 .8.4.8 1a72.1 72.1 0 00.8 9.8c0 .2-.1.3-.3.5l-.9.2c-.3 0-.6-.2-.7-.6 0-.3 0-.8-.2-1.4-1.1 1.2-2.3 1.7-3.4 1.7a2 2 0 01-1.4-.6 4 4 0 01-1-1.6c-.4-1.3-.6-2.6-.6-3.7 0-1.2 0-2.6.2-4.3 0-.3.2-.6.4-.7zM115.5 26.1c-.4 0-.6-.2-.7-.7 0-3.2-.2-6-.6-8.6l.3-.9c.3-.2.5-.3.8-.3.3 0 .6.1.7.5.6-.8 1.4-1.2 2.4-1.2 1.2 0 2.2.6 3 1.8a3.7 3.7 0 013-1.7c1.4 0 2.4.5 3 1.6.5.6.8 1.5 1 2.6l.2 4.5c0 .8 0 1.4-.2 1.8-.2.4-.5.6-1 .6s-.7-.2-.7-.8l.1-3c0-3.5-1-5.3-2.8-5.3-.6 0-1 .2-1.2.6a4 4 0 00-.5 1.5l-.1 2.7v3.4c0 .3-.2.5-.4.7-.3.2-.5.2-.8.2-.3 0-.6-.2-.7-.7l.1-5c0-1.7-.3-2.8-.9-3.2-.3-.2-.7-.3-1.3-.3-.6 0-1 .2-1.3.6a4 4 0 00-.4 2.1l.1 4.5c0 1.4-.3 2-1 2zM130.8 15.2c.2-.2.5-.3.7-.3l.5.1.2.2V19c0 1 0 2.2.3 3.5s.5 1.9.8 1.9c.4 0 1-.2 1.6-.7.7-.5 1.2-1 1.5-1.5l-.3-6c0-.3 0-.6.3-.8.2-.3.5-.4.8-.4.5 0 .7.4.7 1a72.1 72.1 0 00.8 9.8c0 .2 0 .3-.3.5s-.5.2-.8.2-.6-.2-.7-.6l-.3-1.4c-1 1.2-2.2 1.7-3.3 1.7a2 2 0 01-1.5-.6 4 4 0 01-1-1.6c-.4-1.3-.6-2.6-.6-3.7l.2-4.3c0-.3.2-.6.4-.7zM141.5 15.7c.7-.5 1.4-.8 2.3-.8s1.8.1 2.6.5c.8.3 1.2.7 1.2 1.2 0 .3 0 .5-.3.7l-.5.2h-.4l-1-.4c-.5-.3-1-.5-1.5-.5s-.8.1-1.2.4c-.3.2-.5.5-.5 1 0 .4.2.8.6 1 .4.3 1 .5 2 .7 1 .2 1.6.5 2.1.8s.8 1 .8 1.9c0 1.3-.3 2.2-1 2.8-.7.5-1.6.8-2.6.8s-1.8-.1-2.5-.4c-.7-.3-1-.7-1-1.2 0-.6.3-1 1-1l1 .4c.5.2 1 .3 1.6.3s1-.1 1.2-.5c.3-.3.4-.7.4-1.2 0-.4-.2-.8-.5-1s-1-.3-1.7-.4l-1.7-.5c-1-.3-1.4-1.2-1.4-2.5 0-1 .3-1.7 1-2.3zM150 15h1.6v-5c0-.3.1-.5.4-.7.2-.2.5-.3.7-.3.2 0 .4 0 .5.2l.2.7v5l2.8-.1c.5 0 .7.3.7.8 0 .4 0 .8-.3 1l-.8.3h-2.3a74 74 0 00.5 8.8c0 .1 0 .2-.2.3a2 2 0 01-.9.1c-.3 0-.5-.1-.6-.5-.3-2.1-.5-5-.6-8.7H150c-1 0-1.4-.2-1.4-.8 0-.8.4-1.2 1.3-1.2zM163.1 9.9c0-.6.4-1 1.2-1 .4 0 .6.3.7.7v5.6l1.2-.1c1.6 0 2.8.5 3.6 1.6a6 6 0 011.3 3.9c0 1.5-.5 2.8-1.5 4a5 5 0 01-3.9 1.5c-1.5 0-2.3-.4-2.3-1.3a371.2 371.2 0 00-.3-14.9zm4.9 7.7a3 3 0 00-3-.5c.2 1.4.2 3.7.2 7l.9.2a3 3 0 001.8-.7c1-.7 1.4-1.7 1.4-3s-.4-2.3-1.3-3zM176.4 15c.9 0 1.7.3 2.5.7.7.6 1.1 1.2 1.1 1.9s-.3 1.4-1 2.1-1.4 1-2.4 1.2l-2 .1c.1 1.4.5 2.3 1 2.7.1.2.3.3.6.3 1 0 1.8-.3 2.5-1 .7-.6 1.2-1 1.5-1l.5.5c.3.2.4.4.4.6 0 .4-.5 1-1.5 1.8a5.8 5.8 0 01-3.4 1.3c-1.4 0-2.4-.9-3-2.7-.5-1-.7-2.3-.7-3.6 0-1.4.4-2.5 1-3.5s1.6-1.4 3-1.4zm.2 1.7c-.7 0-1.2.3-1.6 1-.2.2-.3.8-.5 1.6 2.3 0 3.4-.5 3.4-1.6 0-.7-.5-1-1.3-1zM98 43.7h1.7v-5c0-.2.1-.4.4-.6.2-.2.5-.3.7-.3l.5.2c.2.2.2.4.2.7v5l2.8-.1c.5 0 .7.3.7.8 0 .4-.1.8-.3 1s-.6.3-.8.3h-2.3a74 74 0 00.5 8.8l-.2.3a2 2 0 01-.9.1c-.3 0-.5-.1-.6-.5-.3-2.1-.5-5-.6-8.7H98c-1 0-1.4-.2-1.4-.8 0-.8.4-1.2 1.3-1.2zM108.2 47.1l.2 5.7V54l-.4.7c-.2.2-.4.2-.8.2-.2 0-.4 0-.5-.4l-.3-.9c0-2.8-.2-5.4-.4-7.9l-.3-6.9c0-.3.1-.6.4-.8s.5-.3.8-.3c.4 0 .7.4.8 1.2a33.4 33.4 0 01.2 5.4c.8-.4 1.6-.6 2.4-.6 1.9 0 3 .8 3.5 2.4.3 1 .5 2.1.5 3.6a28.5 28.5 0 01-.3 4.3c0 .3-.2.5-.4.7l-.8.2c-.5 0-.7-.2-.7-.7l.2-4.2v-1.7a4 4 0 00-.6-2c-.3-.4-.8-.7-1.5-.7-1.3 0-2 .5-2 1.5zM117.3 39.8c.3 0 .6 0 .8.4.3.2.4.5.4.8 0 .3-.1.6-.4 1s-.6.4-.9.4c-.3 0-.6-.2-.8-.4-.3-.3-.4-.6-.4-1 0-.8.4-1.2 1.3-1.2zm1 12.5V54c0 .3 0 .6-.3.8-.3.2-.5.3-.8.3-.4 0-.6-.2-.6-.6a465.2 465.2 0 01-.2-10.5c0-.3.2-.4.5-.4.9 0 1.3.3 1.4 1l.1.8v6.9zM122.5 44.5c.7-.6 1.5-.8 2.4-.8s1.7.1 2.5.4c.9.4 1.3.8 1.3 1.3 0 .3-.1.5-.4.7l-.5.2h-.4l-1-.4c-.5-.3-1-.5-1.4-.5a2 2 0 00-1.2.4c-.4.2-.5.6-.5 1 0 .5.2.8.5 1 .4.3 1 .5 2 .7 1 .2 1.7.5 2.2.8s.8 1 .8 1.9c0 1.3-.4 2.2-1 2.8-.8.5-1.6.8-2.6.8s-1.9-.1-2.5-.4-1-.7-1-1.2c0-.6.2-1 .9-1l1 .4c.6.2 1 .3 1.6.3s1-.1 1.3-.5c.2-.3.4-.7.4-1.2 0-.4-.2-.7-.6-1l-1.7-.4-1.6-.4c-1-.4-1.5-1.3-1.5-2.6 0-1 .4-1.7 1-2.3zM136.5 43.7h1.6v-5c0-.2.2-.4.4-.6.3-.2.5-.3.8-.3.2 0 .4 0 .5.2l.2.7v5l2.8-.1c.4 0 .7.3.7.8 0 .4-.1.8-.4 1-.2.2-.5.3-.8.3H140a74 74 0 00.6 8.8l-.3.3a2 2 0 01-.8.1c-.3 0-.6-.1-.6-.5-.3-2.1-.6-5-.7-8.7h-1.6c-1 0-1.5-.2-1.5-.8 0-.8.5-1.2 1.4-1.2zM150.8 43.7c.7 0 1 .6 1 1.8v3.7l.4 5.4c0 .4-.4.6-1.3.6h-.3c-.2 0-.3 0-.4-.2v-.6-.7c-.8.8-1.8 1.2-3 1.2-2.3 0-3.4-1.7-3.4-5.2 0-2 .4-3.4 1.1-4.4.7-1 1.8-1.5 3.1-1.5.7 0 1.3.1 2 .3.2-.2.5-.4.8-.4zm-2.5 2.2c-.9 0-1.6.3-2 .8-.5.5-.7 1.5-.7 2.9 0 2.4.7 3.5 2 3.5.3 0 .7-.1 1-.4.5-.3.8-.7 1-1 .2-1 .4-1.9.4-2.9a5 5 0 00-.4-2.2c-.3-.5-.7-.7-1.3-.7zM162.3 51.3c.5 0 .8.5.8 1.5 0 .5-.3 1-.8 1.5-.6.5-1.2.7-1.9.7-1 0-1.7-.5-2.1-1.4-.2.4-.6.7-1 1a2.5 2.5 0 01-2.6.1c-.3-.1-.6-.4-.8-.8l-.4-1c-.2-.4-.2-.8-.3-1.3a56 56 0 01-.3-9 59.7 59.7 0 01.4-4.4c.1-.2.4-.3.7-.3.7 0 1 .3 1 .8a139.4 139.4 0 01-.2 8.3l.2 3.5c.2 1.5.5 2.3.8 2.3s.7-.2.9-.7l.3-.6.7-.2a72.9 72.9 0 01.2-13.1c.1-.2.4-.3.7-.3.7 0 1 .3 1 .8a139.4 139.4 0 01-.2 8.3c0 1.4 0 2.6.2 3.5.2 1.5.4 2.3.8 2.3s.6-.3.8-.8l.4-.5.7-.2zM67.2 72.5h1.6v-5c0-.2.2-.4.4-.6l.7-.3c.2 0 .4 0 .6.2l.2.7v5l2.8-.1c.4 0 .7.3.7.8 0 .4-.1.7-.4 1s-.5.3-.8.3h-2.3a74 74 0 00.6 8.8l-.3.3a2 2 0 01-.8.1c-.4 0-.6-.2-.6-.5-.3-2.1-.6-5-.7-8.7h-1.6c-1 0-1.5-.2-1.5-.8 0-.8.5-1.2 1.4-1.2zM79 72.5c1.2 0 2.2.6 3 1.7s1 2.4 1 4c0 1.5-.3 2.8-1.1 4-.8 1-1.8 1.6-3 1.6-1.3 0-2.3-.6-3-1.7a6.4 6.4 0 01-1.2-3.7c0-1.8.3-3.2 1-4.2a3.7 3.7 0 013.4-1.7zm-.2 2c-.7 0-1.2.4-1.7 1-.4.8-.6 1.5-.6 2.3 0 1.2.2 2.1.7 2.8.5.6 1 1 1.6 1 1.1 0 1.8-.5 2.1-1.5l.2-1.7c0-2.6-.8-3.9-2.3-3.9zM90 67.5c0-.6.5-1 1.3-1 .3 0 .5.3.6.7v5.6l1.3-.1c1.5 0 2.7.5 3.6 1.5s1.2 2.4 1.2 4c0 1.5-.5 2.8-1.5 4a5 5 0 01-3.8 1.5c-1.6 0-2.4-.4-2.4-1.3a371.2 371.2 0 00-.2-14.9zm5 7.7a3 3 0 00-3-.5l.2 7 .8.2a3 3 0 001.9-.7c.9-.7 1.4-1.7 1.4-3s-.5-2.3-1.4-3zM103.3 72.6c.9 0 1.7.3 2.5.8.7.4 1.1 1 1.1 1.8 0 .7-.3 1.4-1 2.1s-1.4 1-2.4 1.2l-2 .1c.1 1.4.5 2.3 1 2.7l.6.3c1 0 1.9-.3 2.5-1 .7-.6 1.2-1 1.5-1l.6.4.3.7c0 .4-.5 1-1.5 1.8a5.8 5.8 0 01-3.4 1.3c-1.3 0-2.4-.9-3-2.7-.4-1-.6-2.3-.6-3.6 0-1.4.3-2.5.9-3.5s1.6-1.4 3-1.4zm.2 1.7c-.6 0-1.2.3-1.6 1-.2.2-.3.8-.5 1.6 2.3 0 3.4-.5 3.4-1.6 0-.7-.4-1-1.3-1zM118.8 83.7c-.6 0-1-.2-1.5-.6l-.4-.2V90c0 .3-.2.6-.5.8-.2.2-.5.3-.7.3-.5 0-.7-.3-.7-.8V73.6l.4-.8c.1-.2.3-.3.6-.3s.5 0 .6.2l.4 1.1c0-.3.3-.6.7-.9.5-.3 1-.4 1.8-.4 1.6 0 2.8.6 3.5 1.8.7 1.2 1 2.6 1 4.2s-.4 2.9-1.4 3.8c-1 1-2.2 1.4-3.8 1.4zm-1.9-7.2V81l.4.2c.4.4 1 .6 1.5.6 2.2 0 3.3-1.1 3.3-3.4 0-2-.5-3.2-1.5-3.7-.4-.2-1-.3-1.5-.3-.6 0-1.1.3-1.5.8-.4.4-.7.9-.7 1.3zM125.6 72.8l.6-.3.5.1.3.2v.4l-.1 3.3c0 1 .1 2.2.4 3.5.2 1.3.5 1.9.7 1.9.5 0 1-.2 1.7-.7s1.1-1 1.4-1.5l-.3-6c0-.3.1-.6.3-.8.3-.3.5-.4.8-.4.5 0 .8.4.8 1a72.1 72.1 0 00.8 9.8c0 .2-.1.3-.3.5l-.9.2c-.4 0-.5-.2-.6-.6l-.3-1.4c-1.1 1.2-2.2 1.7-3.4 1.7a2 2 0 01-1.4-.6 4 4 0 01-1-1.6c-.4-1.3-.6-2.6-.6-3.7 0-1.2 0-2.6.2-4.4 0-.2.2-.5.4-.6zM134.9 67.5c0-.6.4-1 1.2-1 .4 0 .6.3.6.7v5.6l1.3-.1c1.5 0 2.7.5 3.6 1.5a6 6 0 011.2 4c0 1.5-.5 2.8-1.5 4a5 5 0 01-3.8 1.5c-1.6 0-2.4-.4-2.4-1.3a371.2 371.2 0 00-.2-14.9zm4.8 7.7a3 3 0 00-2.9-.5l.2 7 .8.2a3 3 0 001.9-.7c1-.7 1.4-1.7 1.4-3s-.5-2.3-1.4-3zM144.7 68.2c0-.6.1-1 .3-1.2s.4-.3.7-.3c.7 0 1 .3 1 .9a139.4 139.4 0 01-.2 8.2c0 1.5 0 2.6.2 3.5.2 1.6.4 2.3.8 2.3s.6-.2.8-.7c0-.2.2-.4.4-.5.1-.2.4-.3.6-.3.6 0 .9.5.9 1.5 0 .5-.3 1-.9 1.5-.5.5-1 .7-1.6.7s-1 0-1.3-.2c-.3-.2-.6-.5-.8-.9l-.5-1-.2-1.3-.2-3.9v-5-3.3zM152.7 68.5c.3 0 .6.2.8.5s.4.5.4.8c0 .3-.1.6-.4 1-.3.2-.6.4-.9.4-.3 0-.6-.2-.8-.4-.3-.3-.4-.6-.4-1 0-.8.4-1.2 1.2-1.2h.1zm1 12.6v1.7c0 .3-.1.6-.3.8-.3.2-.5.3-.8.3-.4 0-.6-.2-.6-.6a465.2 465.2 0 01-.3-10.5c0-.3.2-.4.6-.4.8 0 1.3.3 1.4 1V81.1zM157.9 73.3c.7-.6 1.4-.8 2.3-.8s1.8.1 2.6.4c.8.4 1.2.8 1.2 1.3 0 .3 0 .5-.3.7l-.5.2h-.4l-1-.5c-.5-.2-1-.4-1.5-.4s-.8.1-1.2.4c-.3.2-.5.5-.5 1 0 .4.2.8.6 1 .4.3 1 .5 2 .7 1 .2 1.7.4 2.2.8s.7 1 .7 1.9c0 1.3-.3 2.2-1 2.8-.7.5-1.6.8-2.6.8s-1.8-.1-2.5-.4c-.7-.3-1-.7-1-1.2 0-.6.3-1 1-1l1 .4c.5.2 1 .3 1.6.3s1-.2 1.2-.5c.3-.3.4-.7.4-1.2 0-.4-.1-.8-.5-1l-1.7-.5c-.7 0-1.3-.2-1.7-.4-1-.3-1.4-1.2-1.4-2.5 0-1 .3-1.7 1-2.3zM168.3 76l.2 5.6-.1 1.2c0 .3-.1.5-.3.7s-.4.2-.9.2c-.2 0-.3 0-.5-.4l-.2-.9-.4-7.9-.3-6.9c0-.3.1-.6.3-.8.3-.2.5-.3.8-.3.5 0 .7.4.8 1.2a33.4 33.4 0 01.3 5.4c.8-.4 1.6-.6 2.4-.6 1.8 0 3 .8 3.5 2.4.3 1 .4 2.1.4 3.6a28.5 28.5 0 01-.3 4.3c0 .3-.1.5-.4.7s-.5.2-.8.2c-.4 0-.6-.2-.6-.7l.1-4.2v-1.7c0-.9-.2-1.5-.5-2s-.8-.7-1.6-.7c-1.3 0-1.9.5-1.9 1.5zM179.3 72.6c.8 0 1.6.3 2.4.8.8.4 1.1 1 1.1 1.8 0 .7-.3 1.4-.9 2.1s-1.5 1-2.5 1.2l-2 .1c.2 1.4.5 2.3 1 2.7.2.2.4.3.7.3 1 0 1.8-.3 2.5-1 .6-.6 1.1-1 1.4-1l.6.4.4.7c0 .4-.5 1-1.5 1.8a5.8 5.8 0 01-3.4 1.3c-1.4 0-2.4-.9-3.1-2.7-.4-1-.6-2.3-.6-3.6 0-1.4.3-2.5 1-3.5s1.5-1.4 2.9-1.4zm0 1.7c-.5 0-1 .3-1.5 1l-.4 1.6c2.2 0 3.3-.5 3.3-1.6 0-.7-.4-1-1.3-1zM191.1 72.5v-4.6c0-.9.3-1.3.8-1.3s.9.2 1 .7V71a200.3 200.3 0 00.4 12c0 .6-.3.8-1 .8-.5 0-.8-.4-.8-1-.7.5-1.5.8-2.4.8-1.2 0-2.2-.5-3-1.3a5 5 0 01-1-3.4c0-1.3.2-2.5.7-3.6.6-1.2 1.4-2 2.6-2.5a5.2 5.2 0 012.7-.4zm.1 3.3c0-.4-.2-.6-.4-.8a1 1 0 00-.5-.4h-.7c-.3 0-.5 0-1 .3s-.6.5-.8.9a5.3 5.3 0 00-.3 5c.4.6 1 1 1.6 1s1.3-.4 1.7-1c.4-.8.6-1.6.6-2.7 0-1.2 0-2-.2-2.3z"/></svg>