<svg xmlns="http://www.w3.org/2000/svg" viewBox="0 0 100 100"><defs><style>.cls-1{fill:#0063c6;}</style></defs><title>Github</title><g id="Layer_2" data-name="Layer 2"><g id="Layer_1-2" data-name="Layer 1"><path class="cls-1" d="M80,0H20A20.06,20.06,0,0,0,0,20V80a20.06,20.06,0,0,0,20,20H35a3.93,3.93,0,0,0,1.91-.94,3,3,0,0,0,.72-2.18c0-.13,0-1.61,0-4.43s0-5.06,0-6.71L36.07,86a18.81,18.81,0,0,1-3.62.23,26.76,26.76,0,0,1-4.52-.46,10,10,0,0,1-4.36-2,8.26,8.26,0,0,1-2.87-4l-.65-1.5A16,16,0,0,0,18,75a7.77,7.77,0,0,0-2.83-2.47l-.46-.33a5.12,5.12,0,0,1-.84-.78,3.79,3.79,0,0,1-.59-.91q-.19-.47.33-.75a4.11,4.11,0,0,1,1.88-.29l1.31.19A9.44,9.44,0,0,1,20,71.22a10.6,10.6,0,0,1,3.16,3.39,11.46,11.46,0,0,0,3.61,4.07,7.68,7.68,0,0,0,4.26,1.4,18.11,18.11,0,0,0,3.71-.33,12.62,12.62,0,0,0,2.93-1,10.57,10.57,0,0,1,3.19-6.7,44.82,44.82,0,0,1-6.67-1.17,27.28,27.28,0,0,1-6.12-2.54A17.7,17.7,0,0,1,22.85,64a20.86,20.86,0,0,1-3.42-6.83,32.52,32.52,0,0,1-1.33-9.77A19,19,0,0,1,23.24,34q-2.4-5.92.46-13.28c1.26-.39,3.12-.1,5.6.88a38.78,38.78,0,0,1,5.43,2.51c1.15.69,2.07,1.28,2.77,1.75a47.07,47.07,0,0,1,25,0L65,24.28a34.87,34.87,0,0,1,6-2.86q3.45-1.3,5.28-.72,2.92,7.36.52,13.28A19,19,0,0,1,81.9,47.39a32.82,32.82,0,0,1-1.33,9.8A20.27,20.27,0,0,1,77.12,64a18.36,18.36,0,0,1-5.28,4.33,26.46,26.46,0,0,1-6.12,2.54,44.36,44.36,0,0,1-6.67,1.17q3.39,2.93,3.38,9.24V96.87a4.12,4.12,0,0,0,.33,1.79,1.8,1.8,0,0,0,1,1A5.89,5.89,0,0,0,65,100H80a20.06,20.06,0,0,0,20-20V20A20.06,20.06,0,0,0,80,0Z"/></g></g></svg>