<svg xmlns="http://www.w3.org/2000/svg" viewBox="0 0 3840 2160"><defs><style>.cls-2{fill:#2a60b1}.cls-3{fill:#2670bd}.cls-4{fill:#2281c8}</style></defs><g id="Layer_2" data-name="Layer 2"><g id="Background2"><path fill="#2e4fa6" d="M0 0v906L532.2 0H0z"/><path class="cls-2" d="M0 2160h37.8A124.7 124.7 0 0 1 0 2146.8zM532.2 0L0 906v980.1L1107.9 0H532.2z"/><path class="cls-3" d="M3436.4 0L3840 687V0h-403.6zM526.5 1970L1683.5 0H1108L0 1886.1v260.7a124.7 124.7 0 0 0 37.8 13.2h575.7a127.6 127.6 0 0 1-87-190z"/><path class="cls-4" d="M1102.2 1970L2259.2 0h-575.6L526.5 1970c-46 78.1 2.2 175 87 190h575.7a127.6 127.6 0 0 1-87-190zM2860.7 0L3840 1667.2V687L3436.4 0h-575.7z"/><path d="M2259.3 0L1102 1970c-45.9 78.1 2.3 175 87 190h575.7a127.6 127.6 0 0 1-87-190l772.3-1314.7c24.6-42 67.3-63 109.9-63s85.3 21 110 63l772.2 1314.6c45.9 78.2-2.3 175-87 190.1H3840v-492.8L2860.7 0z" fill="#1d92d3"/><path d="M3442.2 1970L2669.9 655.2c-24.6-42-67.3-63-109.9-63s-85.3 21-110 63l-772.2 1314.6c-45.9 78.2 2.3 175 87 190.1h575.7a127.6 127.6 0 0 1-87-190l196.6-334.7c24.6-42 67.3-62.9 109.9-62.9s85.3 21 110 63l196.5 334.5c45.9 78.2-2.3 175-87 190.1h575.7c84.7-15 132.9-111.9 87-190z" fill="#19a2df"/><path d="M2866.5 1970l-196.6-334.7c-24.6-42-67.3-62.9-109.9-62.9s-85.3 21-110 63l-196.5 334.5c-45.9 78.2 2.3 175 87 190.1h439c84.7-15 132.9-111.9 87-190z" fill="#15b3ea"/></g></g></svg>