<svg xmlns="http://www.w3.org/2000/svg" viewBox="0 0 3840 2160"><defs><style>.cls-1{fill:#2e4fa6;}.cls-2{fill:#2a60b1;}.cls-3{fill:#2670bd;}.cls-4{fill:#2281c8;}.cls-5{fill:#1d92d3;}.cls-6{fill:#19a2df;}.cls-7{fill:#15b3ea;}</style></defs><title>HeroBg</title><g id="Layer_2" data-name="Layer 2"><g id="Background2"><polygon class="cls-1" points="0 0 0 906.05 532.21 0 0 0"/><path class="cls-2" d="M0,2160H37.77A124.67,124.67,0,0,1,0,2146.83Z"/><polygon class="cls-2" points="532.21 0 0 906.05 0 1886.12 1107.9 0 532.21 0"/><polygon class="cls-3" points="3436.4 0 3840 687.09 3840 0 3436.4 0"/><path class="cls-3" d="M526.46,1969.94,1683.59,0H1107.9L0,1886.12v260.71A124.67,124.67,0,0,0,37.77,2160h575.7C528.72,2145,480.53,2048.12,526.46,1969.94Z"/><path class="cls-4" d="M1102.15,1969.94,2259.28,0H1683.59L526.46,1969.94c-45.93,78.18,2.26,175,87,190.06h575.69C1104.41,2145,1056.22,2048.12,1102.15,1969.94Z"/><polygon class="cls-4" points="2860.71 0 3840 1667.16 3840 687.09 3436.4 0 2860.71 0"/><path class="cls-5" d="M2259.28,0,1102.15,1969.94c-45.93,78.18,2.26,175,87,190.06h575.69c-84.75-15-132.94-111.88-87-190.06L2450.07,655.27c24.64-41.95,67.29-62.92,109.93-62.92s85.29,21,109.92,62.92l772.25,1314.67c45.92,78.18-2.27,175-87,190.06H3840V1667.16L2860.71,0Z"/><path class="cls-6" d="M3442.17,1969.94,2669.92,655.27c-24.63-41.95-67.28-62.92-109.92-62.92s-85.29,21-109.93,62.92L1677.83,1969.94c-45.92,78.18,2.27,175,87,190.06h575.69c-84.75-15-132.94-111.88-87-190.06l196.54-334.6c24.64-41.95,67.29-62.92,109.93-62.92s85.29,21,109.92,62.92l196.55,334.6c45.93,78.18-2.26,175-87,190.06h575.69C3439.9,2145,3488.09,2048.12,3442.17,1969.94Z"/><path class="cls-7" d="M2866.47,1969.94l-196.55-334.6c-24.63-41.95-67.28-62.92-109.92-62.92s-85.29,21-109.93,62.92l-196.54,334.6c-45.93,78.18,2.26,175,87,190.06h438.92C2864.21,2145,2912.4,2048.12,2866.47,1969.94Z"/></g></g></svg>