<svg xmlns="http://www.w3.org/2000/svg" viewBox="0 0 100 100"><defs><style>.cls-1{fill:#0063c6;}</style></defs><title>Linkedin</title><g id="Layer_2" data-name="Layer 2"><g id="Layer_1-2" data-name="Layer 1"><path class="cls-1" d="M80,0H20A20.06,20.06,0,0,0,0,20V80a20.06,20.06,0,0,0,20,20H80a20.06,20.06,0,0,0,20-20V20A20.06,20.06,0,0,0,80,0ZM30.32,83.71H15.21V38.56H30.32ZM22.77,32.39h-.11c-5.06,0-8.35-3.47-8.35-7.8s3.38-7.8,8.55-7.8,8.35,3.37,8.45,7.8S28,32.39,22.77,32.39Zm62,51.32H69.68V59.55c0-6.07-2.19-10.21-7.65-10.21a8.25,8.25,0,0,0-7.75,5.49,10.17,10.17,0,0,0-.5,3.66V83.7H38.67s.2-40.91,0-45.14H53.78V45a15,15,0,0,1,13.61-7.47c9.94,0,17.39,6.45,17.39,20.33Z"/></g></g></svg>