<svg xmlns="http://www.w3.org/2000/svg" width="290.3" height="253.5"><style>.st2{fill:#03b2e0}.st3{fill:#00beeb}</style><path d="M128.2 9.7L2.7 223.3a19.7 19.7 0 0 0 17 29.6h250.9a19.7 19.7 0 0 0 17-29.6L162.1 9.7a19.7 19.7 0 0 0-33.9 0" fill="#0592c9"/><path d="M142.3 107.5H82.5a19.7 19.7 0 0 0-17 29.6L91 180.4l5.2-8.8 1.4-2.4 30.7-52.2c3.1-5.5 8.4-8.6 14-9.5m65.5 0H148c5.6.8 10.8 4 14.1 9.5l30.7 52.2 1.4 2.4 5.2 8.8 25.4-43.3c7.6-13-1.8-29.6-17-29.6" fill="#01a1da"/><path class="st2" d="M145.2 107.3l-2.9.2h5.8l-2.9-.2"/><path class="st3" d="M148 107.5h-5.8c-5.6.8-10.8 4-14.1 9.5l-30.7 52.2c3.5-5 9.2-8.5 16.2-8.5h62.8c7 0 12.8 3.5 16.2 8.5L162.1 117a19.6 19.6 0 0 0-14.1-9.5"/><path class="st2" d="M199.3 180.4l-37.2 63.4a19.1 19.1 0 0 1-12.1 9.1h57.5a19.7 19.7 0 0 0 17-29.6l-25.2-42.9"/><path class="st3" d="M194.2 171.6c2.8 5.6 3 12.5-.7 18.7l-31.4 53.5a19.4 19.4 0 0 0 0 0l37.2-63.4-5.1-8.8"/><path class="st2" d="M91 180.4l-25.2 42.9a19.7 19.7 0 0 0 17 29.6h57.5a19.4 19.4 0 0 1-12.1-9.1L91 180.4"/><path class="st3" d="M96.1 171.6l-5.2 8.8 37.2 63.4a19.4 19.4 0 0 1 0 0l-31.4-53.5a19.7 19.7 0 0 1-.6-18.7M192.8 169.2l1.4 2.4-1.4-2.4m-95.3 0l-1.4 2.4 1.4-2.4"/><path d="M150 252.9h-9.8a20 20 0 0 0 9.8 0" fill="#14c4ea"/><path d="M176.6 160.7h-62.8c-7 0-12.7 3.5-16.2 8.5l-1.4 2.4c-2.8 5.6-3 12.5.7 18.7l31.4 53.5c2.8 4.9 7.3 7.9 12.1 9.1h9.8c4.8-1.2 9.2-4.2 12.1-9.1l31.4-53.5c3.6-6.2 3.4-13.1.7-18.7l-1.4-2.4c-3.7-5-9.5-8.5-16.4-8.5" fill="#00d3f4"/></svg>