<svg xmlns="http://www.w3.org/2000/svg" width="26.5" height="20.6"><style>.st0{fill:#757575}</style><path class="st0" d="M26 1.3H7.9c-.3 0-.5.2-.5.5s.2.5.5.5H26c.3 0 .5-.2.5-.5 0-.2-.2-.5-.5-.5zM2.9 3.8h-2a.9.9 0 0 1-.9-.9V.8C0 .4.4 0 .9 0H3c.5 0 .9.4.9.9V3a1 1 0 0 1-1 .8zM26 9.7H7.9c-.3 0-.5.2-.5.5s.2.5.5.5H26c.3 0 .5-.2.5-.5 0-.2-.2-.5-.5-.5zM2.9 12.2h-2a.9.9 0 0 1-.9-.9V9.2c0-.5.4-.9.9-.9H3c.5 0 .9.4.9.9v2.1c-.1.5-.5.9-1 .9z"/><g><path class="st0" d="M26 18.1H7.9c-.3 0-.5.2-.5.5s.2.5.5.5H26c.3 0 .5-.2.5-.5 0-.2-.2-.5-.5-.5zM2.9 20.6h-2a.9.9 0 0 1-.9-.9v-2.1c0-.5.4-.9.9-.9H3c.5 0 .9.4.9.9v2.1c-.1.5-.5.9-1 .9z"/></g></svg>