<svg xmlns="http://www.w3.org/2000/svg" viewBox="0 0 100 100"><defs><style>.cls-1{fill:#0063c6;}</style></defs><title>Twitter</title><g id="Layer_2" data-name="Layer 2"><g id="Layer_1-2" data-name="Layer 1"><path class="cls-1" d="M80,0H20A20.06,20.06,0,0,0,0,20V80a20.06,20.06,0,0,0,20,20H80a20.06,20.06,0,0,0,20-20V20A20.06,20.06,0,0,0,80,0ZM77,35.89l0,1.82c0,18.63-14.17,40.1-40.1,40.1a39.9,39.9,0,0,1-21.6-6.33,28.77,28.77,0,0,0,3.37.2,28.35,28.35,0,0,0,17.5-6A14.14,14.14,0,0,1,23,55.86a14.54,14.54,0,0,0,2.66.24,14.19,14.19,0,0,0,3.71-.48A14.12,14.12,0,0,1,18.06,41.8v-.18a14.14,14.14,0,0,0,6.39,1.77,14.12,14.12,0,0,1-4.37-18.81A40,40,0,0,0,49.13,39.3a14.1,14.1,0,0,1,24-12.85A28.51,28.51,0,0,0,82.1,23a14.14,14.14,0,0,1-6.19,7.8A28.27,28.27,0,0,0,84,28.61,28.66,28.66,0,0,1,77,35.89Z"/></g></g></svg>